<svg version="1.1" id="Layer_2_1_" xmlns:x="ns_extend;" xmlns:i="ns_ai;" xmlns:graph="ns_graphs;" xmlns="http://www.w3.org/2000/svg" xmlns:xlink="http://www.w3.org/1999/xlink" x="0px" y="0px" viewBox="0 0 341.5 341.5" style="enable-background:new 0 0 341.5 341.5;" xml:space="preserve">
 <style type="text/css">
  .st0{fill:#FFDE00;}
 </style>
 <metadata>
  <sfw xmlns="ns_sfw;">
   <slices>
   </slices>
   <sliceSourceBounds bottomLeftOrigin="true" height="341.5" width="341.5" x="0" y="367.6">
   </sliceSourceBounds>
  </sfw>
 </metadata>
 <g id="Layer_1-2">
  <g>
   <path class="st0" d="M170.7,0C76.4,0,0,76.4,0,170.7s76.4,170.7,170.7,170.7S341.5,265,341.5,170.7S265,0,170.7,0z M221.1,115.6
			c7.9,0,14.3,6.4,14.3,14.3s-6.4,14.3-14.3,14.3c0,0-0.1,0-0.1,0c-7.8,0-14.2-6.4-14.2-14.2c0,0,0-0.1,0-0.1
			C206.8,122,213.2,115.6,221.1,115.6L221.1,115.6z M108.9,85.1h15.2v41.7c4.5-7,12.5-11,20.8-10.4c7.6-0.6,15,2.7,19.5,8.9
			c3.3,5.8,4.8,12.5,4.2,19.2V183h-14.9v-34c0-11.1-3.2-19.6-14.1-19.6s-15.5,8.4-15.5,19.6v33.6h-15.2L108.9,85.1L108.9,85.1z
			 M239.7,229.3c-18.6,16.8-42.6,26.3-67.7,26.7l0.3,0.2c-26.1-0.8-51.1-10.2-71.2-26.9c-3.1-2.9-3.2-7.7-0.3-10.7
			c2.9-3.1,7.7-3.2,10.7-0.3c33.9,30.5,85.3,30.5,119.2,0c3-2.6,7.6-2.4,10.3,0.7c0,0.1,0.1,0.1,0.1,0.1
			C243.6,222.4,242.9,226.9,239.7,229.3L239.7,229.3z">
   </path>
  </g>
 </g>
</svg>